<?xml version="1.0" encoding="iso-8859-1"?>
<!-- Generator: Adobe Illustrator 16.0.0, SVG Export Plug-In . SVG Version: 6.00 Build 0)  -->
<!DOCTYPE svg PUBLIC "-//W3C//DTD SVG 1.1//EN" "http://www.w3.org/Graphics/SVG/1.1/DTD/svg11.dtd">
<svg version="1.1" id="Capa_1" xmlns="http://www.w3.org/2000/svg" xmlns:xlink="http://www.w3.org/1999/xlink" x="0px" y="0px"
	 width="73.17px" height="73.17px" viewBox="0 0 73.17 73.17" style="enable-background:new 0 0 73.17 73.17;" xml:space="preserve" fill="#666666"
	>
<g>
	<g id="Stats">
		<g>
			<path d="M36.856,12.554c-2.393,0-4.328,1.896-4.328,4.234v52.14c0,2.348,1.936,4.242,4.328,4.242
				c2.389,0,4.328-1.896,4.328-4.242v-52.14C41.185,14.449,39.244,12.554,36.856,12.554z M13.957,26.687
				c-2.391,0-4.329,1.903-4.329,4.242v37.999c0,2.348,1.938,4.242,4.329,4.242c2.388,0,4.325-1.896,4.325-4.242V30.929
				C18.282,28.59,16.345,26.687,13.957,26.687z M59.214,0c-2.389,0-4.324,1.903-4.324,4.242v64.686c0,2.348,1.937,4.242,4.324,4.242
				c2.393,0,4.328-1.896,4.328-4.242V4.242C63.542,1.903,61.606,0,59.214,0z"/>
		</g>
	</g>
</g>
<g>
</g>
<g>
</g>
<g>
</g>
<g>
</g>
<g>
</g>
<g>
</g>
<g>
</g>
<g>
</g>
<g>
</g>
<g>
</g>
<g>
</g>
<g>
</g>
<g>
</g>
<g>
</g>
<g>
</g>
</svg>
