<svg height="511pt" viewBox="0 1 511 511.999" width="511pt" xmlns="http://www.w3.org/2000/svg" fill="#ECB235"><path d="m485.832031 0h-459.355469c-14.324218 0-25.976562 11.652344-25.976562 25.980469v75.390625c0 4.148437 3.363281 7.515625 7.511719 7.515625 4.152343 0 7.515625-3.367188 7.515625-7.515625v-75.390625c0-6.039063 4.914062-10.953125 10.949218-10.953125h459.355469c6.039063 0 10.949219 4.914062 10.949219 10.953125v418.007812c0 6.035157-4.910156 10.949219-10.949219 10.949219h-459.355469c-6.035156 0-10.949218-4.910156-10.949218-10.949219v-308.21875c0-4.148437-3.363282-7.511719-7.515625-7.511719-4.148438 0-7.511719 3.363282-7.511719 7.511719v308.21875c0 14.324219 11.652344 25.976563 25.976562 25.976563h23.117188v28.507812c0 7.457032 6.070312 13.527344 13.527344 13.527344h52.097656c7.460938 0 13.527344-6.070312 13.527344-13.527344v-28.507812h253.484375v28.507812c0 7.457032 6.066406 13.527344 13.527343 13.527344h52.097657c7.460937 0 13.527343-6.070312 13.527343-13.527344v-28.507812h24.449219c14.324219 0 25.976563-11.652344 25.976563-25.976563v-418.007812c.003906-14.328125-11.652344-25.980469-25.976563-25.980469zm-372.113281 496.972656h-49.09375v-27.007812h49.09375zm332.632812 0h-49.09375v-27.007812h49.09375zm0 0"/><path d="m52.3125 271.425781c-8.011719 0-14.527344 6.515625-14.527344 14.527344v51.3125c0 8.011719 6.515625 14.53125 14.527344 14.53125h8.515625v40.257813c0 12.46875 10.144531 22.609374 22.613281 22.609374h345.429688c12.46875 0 22.613281-10.144531 22.613281-22.609374v-40.871094c0-4.152344-3.363281-7.515625-7.515625-7.515625-4.148438 0-7.511719 3.363281-7.511719 7.515625v40.871094c0 4.179687-3.402343 7.582031-7.582031 7.582031h-345.433594c-4.183594 0-7.582031-3.402344-7.582031-7.582031v-40.257813h8.515625c8.007812 0 14.527344-6.519531 14.527344-14.53125v-51.3125c0-8.007813-6.519532-14.527344-14.527344-14.527344h-8.515625v-72.886719h8.515625c8.007812 0 14.527344-6.515624 14.527344-14.527343v-51.3125c0-8.007813-6.519532-14.527344-14.527344-14.527344h-8.515625v-40.257813c0-4.179687 3.398437-7.582031 7.582031-7.582031h345.429688c4.183594 0 7.582031 3.402344 7.582031 7.582031v237.773438c0 4.148438 3.367187 7.511719 7.515625 7.511719s7.515625-3.363281 7.515625-7.511719v-237.773438c0-12.46875-10.144531-22.609374-22.613281-22.609374h-345.429688c-12.46875 0-22.613281 10.140624-22.613281 22.609374v40.257813h-8.515625c-8.011719 0-14.527344 6.519531-14.527344 14.527344v51.3125c0 8.011719 6.515625 14.527343 14.527344 14.527343h8.515625v72.886719zm.5-87.914062v-50.308594h31.058594v50.308594zm31.058594 102.941406v50.3125h-31.058594v-50.3125zm0 0"/><path d="m136.160156 234.984375c0 66.164063 53.828125 119.992187 119.996094 119.992187 66.164062 0 119.996094-53.828124 119.996094-119.992187s-53.832032-119.996094-119.996094-119.996094c-66.167969 0-119.996094 53.828125-119.996094 119.996094zm224.960938 0c0 57.878906-47.085938 104.964844-104.964844 104.964844s-104.964844-47.085938-104.964844-104.964844 47.085938-104.964844 104.964844-104.964844 104.964844 47.085938 104.964844 104.964844zm0 0"/><path d="m168.097656 234.984375c0 48.554687 39.5 88.058594 88.058594 88.058594 48.554688 0 88.058594-39.503907 88.058594-88.058594s-39.503906-88.058594-88.058594-88.058594c-48.558594 0-88.058594 39.503907-88.058594 88.058594zm80.542969-72.644531v24.339844c-7.878906 1.222656-15.136719 4.335937-21.304687 8.855468l-17.203126-17.199218c10.742188-8.742188 24-14.507813 38.507813-15.996094zm-49.136719 26.621094 17.203125 17.199218c-4.519531 6.171875-7.632812 13.429688-8.855469 21.308594h-24.339843c1.488281-14.507812 7.25-27.765625 15.992187-38.507812zm-15.992187 53.535156h24.339843c1.226563 7.910156 4.355469 15.191406 8.902344 21.375l-17.015625 17.433594c-8.875-10.792969-14.722656-24.164063-16.226562-38.808594zm65.128906 65.132812c-14.375-1.476562-27.519531-7.152344-38.210937-15.761718l16.972656-17.386719c6.152344 4.492187 13.386718 7.589843 21.238281 8.804687zm-26.339844-72.644531c0-18.667969 15.1875-33.855469 33.855469-33.855469s33.851562 15.1875 33.851562 33.855469-15.183593 33.851563-33.851562 33.851563-33.855469-15.183594-33.855469-33.851563zm41.367188 72.644531v-24.34375c7.878906-1.21875 15.140625-4.335937 21.308593-8.855468l17.199219 17.203124c-10.738281 8.742188-23.996093 14.503907-38.507812 15.996094zm49.136719-26.621094-17.199219-17.203124c4.519531-6.167969 7.632812-13.425782 8.855469-21.308594h24.339843c-1.492187 14.511718-7.253906 27.769531-15.996093 38.511718zm15.996093-53.539062h-24.339843c-1.222657-7.875-4.335938-15.132812-8.851563-21.300781l17.21875-17.179688c8.726563 10.734375 14.480469 23.984375 15.972656 38.480469zm-65.132812-65.128906c14.523437 1.492187 27.789062 7.261718 38.535156 16.015625l-17.21875 17.183593c-6.171875-4.519531-13.433594-7.636718-21.316406-8.859374zm0 0"/></svg>