<svg height="496pt" viewBox="0 0 496 496" width="496pt" xmlns="http://www.w3.org/2000/svg" fill="#ECB235"><path d="m483.945312 327.214844-12.992187-24.582032c.613281-2.121093 1.046875-4.320312 1.046875-6.632812 0-6.167969-2.40625-11.742188-6.238281-16 3.839843-4.257812 6.238281-9.832031 6.238281-16s-2.40625-11.742188-6.238281-16c3.839843-4.257812 6.238281-9.832031 6.238281-16 0-3.160156-.648438-6.160156-1.761719-8.929688 10.203125-2.765624 17.761719-12.007812 17.761719-23.070312 0-13.230469-10.769531-24-24-24h-2.214844l23.054688-40.335938c2.0625-3.617187 3.160156-7.734374 3.160156-11.910156v-3.753906c0-13.230469-10.769531-24-24-24-12.046875 0-18.558594 5.792969-23.320312 10.015625-4.054688 3.609375-6.734376 5.984375-12.703126 5.984375-5.960937 0-8.640624-2.375-12.695312-5.984375-4.761719-4.222656-11.273438-10.015625-23.320312-10.015625-12.039063 0-18.554688 5.792969-23.3125 10.015625-4.054688 3.609375-6.726563 5.984375-12.6875 5.984375-5.945313 0-8.617188-2.375-12.65625-5.976562-4.761719-4.230469-11.265626-10.023438-23.304688-10.023438-13.230469 0-24 10.769531-24 24v3.753906c0 4.175782 1.097656 8.292969 3.167969 11.902344l9.335937 16.34375h-10.617187c-8.773438 0-17.535157 1.519531-25.886719 4.230469v-116.230469c0-22.054688-17.945312-40-40-40h-192c-22.054688 0-40 17.945312-40 40v416c0 22.054688 17.945312 40 40 40h192c22.054688 0 40-17.945312 40-40v-153.511719c1.367188.6875 2.769531 1.296875 4.089844 2.085938l7.589844 4.5625c6.65625 3.992187 13.894531 6.808593 21.375 8.605469l-5 9.464843c-7.886719 14.929688-12.054688 31.730469-12.054688 48.792969 0 57.34375 46.65625 104 104 104s104-46.65625 104-104.191406c0-16.871094-4.167969-33.671875-12.054688-48.59375zm-171.945312-207.214844c0-4.40625 3.585938-8 8-8 5.945312 0 8.625 2.375 12.664062 5.976562 4.761719 4.230469 11.265626 10.023438 23.296876 10.023438 12.039062 0 18.550781-5.792969 23.3125-10.015625 4.054687-3.609375 6.726562-5.984375 12.6875-5.984375 5.960937 0 8.640624 2.375 12.695312 5.984375 4.757812 4.222656 11.273438 10.015625 23.320312 10.015625 12.046876 0 18.566407-5.792969 23.328126-10.015625 4.054687-3.609375 6.734374-5.984375 12.695312-5.984375 4.414062 0 8 3.59375 8 8v3.753906c0 1.390625-.367188 2.757813-1.054688 3.964844l-27.585937 48.28125h-102.71875l-27.585937-48.289062c-.6875-1.199219-1.054688-2.566407-1.054688-3.957032zm-272-104h192c13.230469 0 24 10.769531 24 24v24h-240v-24c0-13.230469 10.769531-24 24-24zm192 464h-192c-13.230469 0-24-10.769531-24-24v-24h240v24c0 13.230469-10.769531 24-24 24zm24-64h-240v-336h240v82.742188c-5.136719 2.121093-10.503906 3.625-16 4.441406v-71.183594h-208v304h208v-104h5.113281c3.671875 0 7.300781.457031 10.886719 1.121094zm-144-264v160h96v-16h16v88h-176v-272h176v56h-16v-16zm48 48v96h-32v-128h32v16h16v-16h16v128h-16v-96zm124.320312 90.855469c-11.839843-7.101563-25.410156-10.855469-39.207031-10.855469h-37.113281v-96h22.113281c12.933594 0 25.894531-3.054688 37.472657-8.839844 9.359374-4.679687 19.839843-7.160156 30.308593-7.160156h19.753907l13.710937 24h132.640625c4.414062 0 8 3.59375 8 8s-3.585938 8-8 8h-112v16h96c4.414062 0 8 3.59375 8 8s-3.585938 8-8 8h-96v16h96c4.414062 0 8 3.59375 8 8s-3.585938 8-8 8h-96v16h96c4.414062 0 8 3.59375 8 8s-3.585938 8-8 8h-125.113281c-10.902344 0-21.621094-2.96875-30.976563-8.574219zm107.679688 173.144531c-48.519531 0-88-39.480469-88-88.191406 0-14.273438 3.519531-28.496094 10.191406-41.113282l7.792969-14.75c.304687 0 .601563.0625.894531.0625h125.121094c4.480469 0 8.625-1.3125 12.214844-3.457031l9.59375 18.144531c6.671875 12.617188 10.191406 26.832032 10.191406 41.304688 0 48.519531-39.480469 88-88 88zm0 0"/><path d="m392 368c4.414062 0 8 3.59375 8 8h16c0-10.414062-6.710938-19.214844-16-22.527344v-17.472656h-16v17.472656c-9.289062 3.3125-16 12.113282-16 22.527344 0 13.230469 10.769531 24 24 24 4.414062 0 8 3.59375 8 8s-3.585938 8-8 8-8-3.59375-8-8h-16c0 10.414062 6.710938 19.214844 16 22.527344v17.472656h16v-17.472656c9.289062-3.3125 16-12.113282 16-22.527344 0-13.230469-10.769531-24-24-24-4.414062 0-8-3.59375-8-8s3.585938-8 8-8zm0 0"/><path d="m104 32h64v16h-64zm0 0"/><path d="m184 32h16v16h-16zm0 0"/><path d="m72 32h16v16h-16zm0 0"/><path d="m112 448h48v16h-48zm0 0"/></svg>